<svg width="1688" height="64" viewBox="0 0 1688 64" fill="none" xmlns="http://www.w3.org/2000/svg">
<path d="M40.998 37.5C40.998 38.8807 39.6549 40 37.998 40C36.3412 40 34.998 38.8807 34.998 37.5C34.998 36.1193 36.3412 35 37.998 35C39.6549 35 40.998 36.1193 40.998 37.5ZM40.998 37.5V25M23 26H36M23 32H31M23 38H29" stroke="black" stroke-width="2" stroke-linecap="square"/>
<path d="M97.998 24H95.998V34.4714C95.3908 34.1668 94.6981 34 93.998 34C91.9674 34 89.998 35.404 89.998 37.5C89.998 39.596 91.9674 41 93.998 41C96.0287 41 97.998 39.596 97.998 37.5V24Z" fill="black"/>
<path d="M78 25V27H93V25H78Z" fill="black"/>
<path d="M78 31V33H88V31H78Z" fill="black"/>
<path d="M78 37V39H86V37H78Z" fill="black"/>
<path d="M152.998 37.5C152.998 38.8807 151.655 40 149.998 40C148.341 40 146.998 38.8807 146.998 37.5C146.998 36.1193 148.341 35 149.998 35C151.655 35 152.998 36.1193 152.998 37.5ZM152.998 37.5V25M135 26H148M135 32H143M135 38H141" stroke="black" stroke-width="2" stroke-linecap="round" stroke-linejoin="round"/>
<path d="M209.998 25C209.998 24.4477 209.55 24 208.998 24C208.446 24 207.998 24.4477 207.998 25V34.4714C207.391 34.1668 206.698 34 205.998 34C203.967 34 201.998 35.404 201.998 37.5C201.998 39.596 203.967 41 205.998 41C208.029 41 209.998 39.596 209.998 37.5V25Z" fill="black"/>
<path d="M191 25C190.448 25 190 25.4477 190 26C190 26.5523 190.448 27 191 27H204C204.552 27 205 26.5523 205 26C205 25.4477 204.552 25 204 25H191Z" fill="black"/>
<path d="M191 31C190.448 31 190 31.4477 190 32C190 32.5523 190.448 33 191 33H199C199.552 33 200 32.5523 200 32C200 31.4477 199.552 31 199 31H191Z" fill="black"/>
<path d="M191 37C190.448 37 190 37.4477 190 38C190 38.5523 190.448 39 191 39H197C197.552 39 198 38.5523 198 38C198 37.4477 197.552 37 197 37H191Z" fill="black"/>
<path d="M264.998 37.5C264.998 38.8807 263.655 40 261.998 40C260.341 40 258.998 38.8807 258.998 37.5C258.998 36.1193 260.341 35 261.998 35C263.655 35 264.998 36.1193 264.998 37.5ZM264.998 37.5V25M247 26H260M247 32H255M247 38H253" stroke="black" stroke-width="2" stroke-linecap="round" stroke-linejoin="round"/>
<path d="M321.998 25C321.998 24.4477 321.55 24 320.998 24C320.446 24 319.998 24.4477 319.998 25V34.4714C319.391 34.1668 318.698 34 317.998 34C315.967 34 313.998 35.404 313.998 37.5C313.998 39.596 315.967 41 317.998 41C320.029 41 321.998 39.596 321.998 37.5V25Z" fill="black"/>
<path d="M303 25C302.448 25 302 25.4477 302 26C302 26.5523 302.448 27 303 27H316C316.552 27 317 26.5523 317 26C317 25.4477 316.552 25 316 25H303Z" fill="black"/>
<path d="M303 31C302.448 31 302 31.4477 302 32C302 32.5523 302.448 33 303 33H311C311.552 33 312 32.5523 312 32C312 31.4477 311.552 31 311 31H303Z" fill="black"/>
<path d="M303 37C302.448 37 302 37.4477 302 38C302 38.5523 302.448 39 303 39H309C309.552 39 310 38.5523 310 38C310 37.4477 309.552 37 309 37H303Z" fill="black"/>
<path d="M376.998 37.5C376.998 38.8807 375.655 40 373.998 40C372.341 40 370.998 38.8807 370.998 37.5C370.998 36.1193 372.341 35 373.998 35C375.655 35 376.998 36.1193 376.998 37.5ZM376.998 37.5V25M359 26H372M359 32H367M359 38H365" stroke="black" stroke-width="2" stroke-linecap="round" stroke-linejoin="round"/>
<path d="M433.998 25C433.998 24.4477 433.55 24 432.998 24C432.446 24 431.998 24.4477 431.998 25V34.4714C431.391 34.1668 430.698 34 429.998 34C427.967 34 425.998 35.404 425.998 37.5C425.998 39.596 427.967 41 429.998 41C432.029 41 433.998 39.596 433.998 37.5V25Z" fill="black"/>
<path d="M415 25C414.448 25 414 25.4477 414 26C414 26.5523 414.448 27 415 27H428C428.552 27 429 26.5523 429 26C429 25.4477 428.552 25 428 25H415Z" fill="black"/>
<path d="M415 31C414.448 31 414 31.4477 414 32C414 32.5523 414.448 33 415 33H423C423.552 33 424 32.5523 424 32C424 31.4477 423.552 31 423 31H415Z" fill="black"/>
<path d="M415 37C414.448 37 414 37.4477 414 38C414 38.5523 414.448 39 415 39H421C421.552 39 422 38.5523 422 38C422 37.4477 421.552 37 421 37H415Z" fill="black"/>
<path d="M488.998 37.5C488.998 38.8807 487.655 40 485.998 40C484.341 40 482.998 38.8807 482.998 37.5C482.998 36.1193 484.341 35 485.998 35C487.655 35 488.998 36.1193 488.998 37.5ZM488.998 37.5V25M471 26H484M471 32H479M471 38H477" stroke="black" stroke-width="2" stroke-linecap="round" stroke-linejoin="round"/>
<path d="M545.998 25C545.998 24.4477 545.55 24 544.998 24C544.446 24 543.998 24.4477 543.998 25V34.4714C543.391 34.1668 542.698 34 541.998 34C539.967 34 537.998 35.404 537.998 37.5C537.998 39.596 539.967 41 541.998 41C544.029 41 545.998 39.596 545.998 37.5V25Z" fill="black"/>
<path d="M527 25C526.448 25 526 25.4477 526 26C526 26.5523 526.448 27 527 27H540C540.552 27 541 26.5523 541 26C541 25.4477 540.552 25 540 25H527Z" fill="black"/>
<path d="M527 31C526.448 31 526 31.4477 526 32C526 32.5523 526.448 33 527 33H535C535.552 33 536 32.5523 536 32C536 31.4477 535.552 31 535 31H527Z" fill="black"/>
<path d="M527 37C526.448 37 526 37.4477 526 38C526 38.5523 526.448 39 527 39H533C533.552 39 534 38.5523 534 38C534 37.4477 533.552 37 533 37H527Z" fill="black"/>
<path d="M582.75 25.75H596.26M582.75 32H591.25M582.75 38.25H589.25M601.254 36.75C601.254 38.1307 599.911 39.25 598.254 39.25C596.597 39.25 595.254 38.1307 595.254 36.75C595.254 35.3693 596.597 34.25 598.254 34.25C599.911 34.25 601.254 35.3693 601.254 36.75ZM601.254 36.75V24.75" stroke="black" stroke-width="1.5" stroke-linecap="square"/>
<path d="M658.004 24H656.504V34.1499C655.859 33.7351 655.068 33.5 654.254 33.5C652.317 33.5 650.504 34.8328 650.504 36.75C650.504 38.6672 652.317 40 654.254 40C656.191 40 658.004 38.6672 658.004 36.75V24Z" fill="black"/>
<path d="M638 25V26.5H653.01V25H638Z" fill="black"/>
<path d="M638 31.25V32.75H648V31.25H638Z" fill="black"/>
<path d="M638 37.5V39H646V37.5H638Z" fill="black"/>
<path d="M694.75 25.75H708.26M694.75 32H703.25M694.75 38.25H701.25M713.254 36.75C713.254 38.1307 711.911 39.25 710.254 39.25C708.597 39.25 707.254 38.1307 707.254 36.75C707.254 35.3693 708.597 34.25 710.254 34.25C711.911 34.25 713.254 35.3693 713.254 36.75ZM713.254 36.75V24.75" stroke="black" stroke-width="1.5" stroke-linecap="round" stroke-linejoin="round"/>
<path d="M770.004 24.75C770.004 24.3358 769.668 24 769.254 24C768.84 24 768.504 24.3358 768.504 24.75V34.1499C767.859 33.7351 767.068 33.5 766.254 33.5C764.317 33.5 762.504 34.8328 762.504 36.75C762.504 38.6672 764.317 40 766.254 40C768.191 40 770.004 38.6672 770.004 36.75V24.75Z" fill="black"/>
<path d="M750.75 25C750.336 25 750 25.3358 750 25.75C750 26.1642 750.336 26.5 750.75 26.5H764.26C764.674 26.5 765.01 26.1642 765.01 25.75C765.01 25.3358 764.674 25 764.26 25H750.75Z" fill="black"/>
<path d="M750.75 31.25C750.336 31.25 750 31.5858 750 32C750 32.4142 750.336 32.75 750.75 32.75H759.25C759.664 32.75 760 32.4142 760 32C760 31.5858 759.664 31.25 759.25 31.25H750.75Z" fill="black"/>
<path d="M750.75 37.5C750.336 37.5 750 37.8358 750 38.25C750 38.6642 750.336 39 750.75 39H757.25C757.664 39 758 38.6642 758 38.25C758 37.8358 757.664 37.5 757.25 37.5H750.75Z" fill="black"/>
<path d="M806.75 25.75H820.26M806.75 32H815.25M806.75 38.25H813.25M825.254 36.75C825.254 38.1307 823.911 39.25 822.254 39.25C820.597 39.25 819.254 38.1307 819.254 36.75C819.254 35.3693 820.597 34.25 822.254 34.25C823.911 34.25 825.254 35.3693 825.254 36.75ZM825.254 36.75V24.75" stroke="black" stroke-width="1.5" stroke-linecap="round" stroke-linejoin="round"/>
<path d="M882.004 24.75C882.004 24.3358 881.668 24 881.254 24C880.84 24 880.504 24.3358 880.504 24.75V34.1499C879.859 33.7351 879.068 33.5 878.254 33.5C876.317 33.5 874.504 34.8328 874.504 36.75C874.504 38.6672 876.317 40 878.254 40C880.191 40 882.004 38.6672 882.004 36.75V24.75Z" fill="black"/>
<path d="M862.75 25C862.336 25 862 25.3358 862 25.75C862 26.1642 862.336 26.5 862.75 26.5H876.26C876.674 26.5 877.01 26.1642 877.01 25.75C877.01 25.3358 876.674 25 876.26 25H862.75Z" fill="black"/>
<path d="M862.75 31.25C862.336 31.25 862 31.5858 862 32C862 32.4142 862.336 32.75 862.75 32.75H871.25C871.664 32.75 872 32.4142 872 32C872 31.5858 871.664 31.25 871.25 31.25H862.75Z" fill="black"/>
<path d="M862.75 37.5C862.336 37.5 862 37.8358 862 38.25C862 38.6642 862.336 39 862.75 39H869.25C869.664 39 870 38.6642 870 38.25C870 37.8358 869.664 37.5 869.25 37.5H862.75Z" fill="black"/>
<path d="M918.75 25.75H932.26M918.75 32H927.25M918.75 38.25H925.25M937.254 36.75C937.254 38.1307 935.911 39.25 934.254 39.25C932.597 39.25 931.254 38.1307 931.254 36.75C931.254 35.3693 932.597 34.25 934.254 34.25C935.911 34.25 937.254 35.3693 937.254 36.75ZM937.254 36.75V24.75" stroke="black" stroke-width="1.5" stroke-linecap="round" stroke-linejoin="round"/>
<path d="M994.004 24.75C994.004 24.3358 993.668 24 993.254 24C992.84 24 992.504 24.3358 992.504 24.75V34.1499C991.859 33.7351 991.068 33.5 990.254 33.5C988.317 33.5 986.504 34.8328 986.504 36.75C986.504 38.6672 988.317 40 990.254 40C992.191 40 994.004 38.6672 994.004 36.75V24.75Z" fill="black"/>
<path d="M974.75 25C974.336 25 974 25.3358 974 25.75C974 26.1642 974.336 26.5 974.75 26.5H988.26C988.674 26.5 989.01 26.1642 989.01 25.75C989.01 25.3358 988.674 25 988.26 25H974.75Z" fill="black"/>
<path d="M974.75 31.25C974.336 31.25 974 31.5858 974 32C974 32.4142 974.336 32.75 974.75 32.75H983.25C983.664 32.75 984 32.4142 984 32C984 31.5858 983.664 31.25 983.25 31.25H974.75Z" fill="black"/>
<path d="M974.75 37.5C974.336 37.5 974 37.8358 974 38.25C974 38.6642 974.336 39 974.75 39H981.25C981.664 39 982 38.6642 982 38.25C982 37.8358 981.664 37.5 981.25 37.5H974.75Z" fill="black"/>
<path d="M1030.75 25.75H1044.26M1030.75 32H1039.25M1030.75 38.25H1037.25M1049.25 36.75C1049.25 38.1307 1047.91 39.25 1046.25 39.25C1044.6 39.25 1043.25 38.1307 1043.25 36.75C1043.25 35.3693 1044.6 34.25 1046.25 34.25C1047.91 34.25 1049.25 35.3693 1049.25 36.75ZM1049.25 36.75V24.75" stroke="black" stroke-width="1.5" stroke-linecap="round" stroke-linejoin="round"/>
<path d="M1106 24.75C1106 24.3358 1105.67 24 1105.25 24C1104.84 24 1104.5 24.3358 1104.5 24.75V34.1499C1103.86 33.7351 1103.07 33.5 1102.25 33.5C1100.32 33.5 1098.5 34.8328 1098.5 36.75C1098.5 38.6672 1100.32 40 1102.25 40C1104.19 40 1106 38.6672 1106 36.75V24.75Z" fill="black"/>
<path d="M1086.75 25C1086.34 25 1086 25.3358 1086 25.75C1086 26.1642 1086.34 26.5 1086.75 26.5H1100.26C1100.67 26.5 1101.01 26.1642 1101.01 25.75C1101.01 25.3358 1100.67 25 1100.26 25H1086.75Z" fill="black"/>
<path d="M1086.75 31.25C1086.34 31.25 1086 31.5858 1086 32C1086 32.4142 1086.34 32.75 1086.75 32.75H1095.25C1095.66 32.75 1096 32.4142 1096 32C1096 31.5858 1095.66 31.25 1095.25 31.25H1086.75Z" fill="black"/>
<path d="M1086.75 37.5C1086.34 37.5 1086 37.8358 1086 38.25C1086 38.6642 1086.34 39 1086.75 39H1093.25C1093.66 39 1094 38.6642 1094 38.25C1094 37.8358 1093.66 37.5 1093.25 37.5H1086.75Z" fill="black"/>
<path d="M1142.5 25.5H1156.5M1142.5 32H1151.5M1142.5 38.5H1149.5M1161.5 37C1161.5 38.3807 1159.93 39.5 1158 39.5C1156.07 39.5 1154.5 38.3807 1154.5 37C1154.5 35.6193 1156.07 34.5 1158 34.5C1159.93 34.5 1161.5 35.6193 1161.5 37ZM1161.5 37V24.5" stroke="black" stroke-linecap="square"/>
<path d="M1218 24V37C1218 37.8937 1217.49 38.6557 1216.77 39.1746C1216.04 39.6942 1215.06 40 1214 40C1212.94 40 1211.96 39.6942 1211.23 39.1746C1210.51 38.6557 1210 37.8937 1210 37C1210 36.1063 1210.51 35.3443 1211.23 34.8254C1211.96 34.3058 1212.94 34 1214 34C1215.06 34 1216.04 34.3058 1216.77 34.8254C1216.85 34.8832 1216.92 34.9441 1217 35.0079V24H1218Z" fill="black"/>
<path d="M1198 25H1213V26H1198V25Z" fill="black"/>
<path d="M1198 31.5H1208V32.5H1198V31.5Z" fill="black"/>
<path d="M1198 38H1206V39H1198V38Z" fill="black"/>
<path d="M1254.5 25.5H1268.5M1254.5 32H1263.5M1254.5 38.5H1261.5M1273.5 37C1273.5 38.3807 1271.93 39.5 1270 39.5C1268.07 39.5 1266.5 38.3807 1266.5 37C1266.5 35.6193 1268.07 34.5 1270 34.5C1271.93 34.5 1273.5 35.6193 1273.5 37ZM1273.5 37V24.5" stroke="black" stroke-linecap="round" stroke-linejoin="round"/>
<path d="M1329.5 24C1329.78 24 1330 24.2239 1330 24.5V37C1330 37.8937 1329.49 38.6557 1328.77 39.1746C1328.04 39.6942 1327.06 40 1326 40C1324.94 40 1323.96 39.6942 1323.23 39.1746C1322.51 38.6557 1322 37.8937 1322 37C1322 36.1063 1322.51 35.3443 1323.23 34.8254C1323.96 34.3058 1324.94 34 1326 34C1327.06 34 1328.04 34.3058 1328.77 34.8254C1328.85 34.8832 1328.92 34.9441 1329 35.0079V24.5C1329 24.2239 1329.22 24 1329.5 24Z" fill="black"/>
<path d="M1310 25.5C1310 25.2239 1310.22 25 1310.5 25H1324.5C1324.78 25 1325 25.2239 1325 25.5C1325 25.7761 1324.78 26 1324.5 26H1310.5C1310.22 26 1310 25.7761 1310 25.5Z" fill="black"/>
<path d="M1310 32C1310 31.7239 1310.22 31.5 1310.5 31.5H1319.5C1319.78 31.5 1320 31.7239 1320 32C1320 32.2761 1319.78 32.5 1319.5 32.5H1310.5C1310.22 32.5 1310 32.2761 1310 32Z" fill="black"/>
<path d="M1310 38.5C1310 38.2239 1310.22 38 1310.5 38H1317.5C1317.78 38 1318 38.2239 1318 38.5C1318 38.7761 1317.78 39 1317.5 39H1310.5C1310.22 39 1310 38.7761 1310 38.5Z" fill="black"/>
<path d="M1366.5 25.5H1380.5M1366.5 32H1375.5M1366.5 38.5H1373.5M1385.5 37C1385.5 38.3807 1383.93 39.5 1382 39.5C1380.07 39.5 1378.5 38.3807 1378.5 37C1378.5 35.6193 1380.07 34.5 1382 34.5C1383.93 34.5 1385.5 35.6193 1385.5 37ZM1385.5 37V24.5" stroke="black" stroke-linecap="round" stroke-linejoin="round"/>
<path d="M1441.5 24C1441.78 24 1442 24.2239 1442 24.5V37C1442 37.8937 1441.49 38.6557 1440.77 39.1746C1440.04 39.6942 1439.06 40 1438 40C1436.94 40 1435.96 39.6942 1435.23 39.1746C1434.51 38.6557 1434 37.8937 1434 37C1434 36.1063 1434.51 35.3443 1435.23 34.8254C1435.96 34.3058 1436.94 34 1438 34C1439.06 34 1440.04 34.3058 1440.77 34.8254C1440.85 34.8832 1440.92 34.9441 1441 35.0079V24.5C1441 24.2239 1441.22 24 1441.5 24Z" fill="black"/>
<path d="M1422 25.5C1422 25.2239 1422.22 25 1422.5 25H1436.5C1436.78 25 1437 25.2239 1437 25.5C1437 25.7761 1436.78 26 1436.5 26H1422.5C1422.22 26 1422 25.7761 1422 25.5Z" fill="black"/>
<path d="M1422 32C1422 31.7239 1422.22 31.5 1422.5 31.5H1431.5C1431.78 31.5 1432 31.7239 1432 32C1432 32.2761 1431.78 32.5 1431.5 32.5H1422.5C1422.22 32.5 1422 32.2761 1422 32Z" fill="black"/>
<path d="M1422 38.5C1422 38.2239 1422.22 38 1422.5 38H1429.5C1429.78 38 1430 38.2239 1430 38.5C1430 38.7761 1429.78 39 1429.5 39H1422.5C1422.22 39 1422 38.7761 1422 38.5Z" fill="black"/>
<path d="M1478.5 25.5H1492.5M1478.5 32H1487.5M1478.5 38.5H1485.5M1497.5 37C1497.5 38.3807 1495.93 39.5 1494 39.5C1492.07 39.5 1490.5 38.3807 1490.5 37C1490.5 35.6193 1492.07 34.5 1494 34.5C1495.93 34.5 1497.5 35.6193 1497.5 37ZM1497.5 37V24.5" stroke="black" stroke-linecap="round" stroke-linejoin="round"/>
<path d="M1553.5 24C1553.78 24 1554 24.2239 1554 24.5V37C1554 37.8937 1553.49 38.6557 1552.77 39.1746C1552.04 39.6942 1551.06 40 1550 40C1548.94 40 1547.96 39.6942 1547.23 39.1746C1546.51 38.6557 1546 37.8937 1546 37C1546 36.1063 1546.51 35.3443 1547.23 34.8254C1547.96 34.3058 1548.94 34 1550 34C1551.06 34 1552.04 34.3058 1552.77 34.8254C1552.85 34.8832 1552.92 34.9441 1553 35.0079V24.5C1553 24.2239 1553.22 24 1553.5 24Z" fill="black"/>
<path d="M1534 25.5C1534 25.2239 1534.22 25 1534.5 25H1548.5C1548.78 25 1549 25.2239 1549 25.5C1549 25.7761 1548.78 26 1548.5 26H1534.5C1534.22 26 1534 25.7761 1534 25.5Z" fill="black"/>
<path d="M1534 32C1534 31.7239 1534.22 31.5 1534.5 31.5H1543.5C1543.78 31.5 1544 31.7239 1544 32C1544 32.2761 1543.78 32.5 1543.5 32.5H1534.5C1534.22 32.5 1534 32.2761 1534 32Z" fill="black"/>
<path d="M1534 38.5C1534 38.2239 1534.22 38 1534.5 38H1541.5C1541.78 38 1542 38.2239 1542 38.5C1542 38.7761 1541.78 39 1541.5 39H1534.5C1534.22 39 1534 38.7761 1534 38.5Z" fill="black"/>
<path d="M1590.5 25.5H1604.5M1590.5 32H1599.5M1590.5 38.5H1597.5M1609.5 37C1609.5 38.3807 1607.93 39.5 1606 39.5C1604.07 39.5 1602.5 38.3807 1602.5 37C1602.5 35.6193 1604.07 34.5 1606 34.5C1607.93 34.5 1609.5 35.6193 1609.5 37ZM1609.5 37V24.5" stroke="black" stroke-linecap="round" stroke-linejoin="round"/>
<path d="M1665.5 24C1665.78 24 1666 24.2239 1666 24.5V37C1666 37.8937 1665.49 38.6557 1664.77 39.1746C1664.04 39.6942 1663.06 40 1662 40C1660.94 40 1659.96 39.6942 1659.23 39.1746C1658.51 38.6557 1658 37.8937 1658 37C1658 36.1063 1658.51 35.3443 1659.23 34.8254C1659.96 34.3058 1660.94 34 1662 34C1663.06 34 1664.04 34.3058 1664.77 34.8254C1664.85 34.8832 1664.92 34.9441 1665 35.0079V24.5C1665 24.2239 1665.22 24 1665.5 24Z" fill="black"/>
<path d="M1646 25.5C1646 25.2239 1646.22 25 1646.5 25H1660.5C1660.78 25 1661 25.2239 1661 25.5C1661 25.7761 1660.78 26 1660.5 26H1646.5C1646.22 26 1646 25.7761 1646 25.5Z" fill="black"/>
<path d="M1646 32C1646 31.7239 1646.22 31.5 1646.5 31.5H1655.5C1655.78 31.5 1656 31.7239 1656 32C1656 32.2761 1655.78 32.5 1655.5 32.5H1646.5C1646.22 32.5 1646 32.2761 1646 32Z" fill="black"/>
<path d="M1646 38.5C1646 38.2239 1646.22 38 1646.5 38H1653.5C1653.78 38 1654 38.2239 1654 38.5C1654 38.7761 1653.78 39 1653.5 39H1646.5C1646.22 39 1646 38.7761 1646 38.5Z" fill="black"/>
</svg>
